<svg width="37" height="32" viewBox="0 0 37 32" fill="none" xmlns="http://www.w3.org/2000/svg">
  <path d="M6 31.5H10V23.1406L6 27.1406V31.5Z" fill="#0EA5C4" />
  <path d="M17 31.5V18.3398L15.9004 17.2402L13 20.1406V31.5H17Z" fill="#0EA5C4" />
  <path d="M20 31.5H24V21L21.8223 23.1777L20 21.3545V31.5Z" fill="#0EA5C4" />
  <path d="M27 31.5H31V14L27 18V31.5Z" fill="#0EA5C4" />
  <path
    d="M36.9268 0.0107422L36.9375 11.124L33.001 7.1875L21.8223 18.3662L18.7803 15.3232L18.7871 15.3154L15.9004 12.4287L3.04297 25.2871L0 22.2441L12.8574 9.38574L12.8369 9.36523L15.8799 6.32227L21.8301 12.2725L29.958 4.14453L25.8135 0L36.9268 0.0107422Z"
    fill="#0EA5C4" />
</svg>